<svg width="136" height="59" viewBox="0 0 136 59" fill="none" xmlns="http://www.w3.org/2000/svg">
<path fill-rule="evenodd" clip-rule="evenodd" d="M59.8703 4.4706C39.7402 7.06559 18.7314 11.4923 1.28759 16.7254L0.712891 14.8098C18.2691 9.54289 39.3853 5.0948 59.6146 2.48702C79.8278 -0.118698 99.2318 -0.897227 113.336 1.21705C120.376 2.27231 126.207 4.06342 130.158 6.79703C132.145 8.1716 133.685 9.80417 134.645 11.7275C135.61 13.6589 135.963 15.8272 135.656 18.2165C135.05 22.9473 131.867 28.5268 125.813 35.063C120.158 41.1681 111.909 48.2023 100.641 56.2692H116V58.2692H97.5002C97.1886 58.2692 96.8947 58.1239 96.7055 57.8762C96.5163 57.6285 96.4535 57.3068 96.5355 57.0061L101.035 40.5054L102.965 41.0316L99.1987 54.8419C110.548 46.7353 118.769 39.7243 124.346 33.7039C130.309 27.2655 133.146 22.0676 133.672 17.9622C133.933 15.9335 133.629 14.1691 132.856 12.6212C132.079 11.0652 130.798 9.67178 129.02 8.44176C125.442 5.96619 119.969 4.23365 113.039 3.19495C99.2062 1.12128 80.0164 1.87354 59.8703 4.4706Z" fill="black"/>
</svg>
