<svg width="110" height="16" viewBox="0 0 110 16" fill="none" xmlns="http://www.w3.org/2000/svg">
<path d="M90.345 3.83744H95.4186V6.79014L95.0349 7.32312C95.0917 6.65512 95.3014 6.02976 95.6638 5.44704C96.0262 4.85721 96.5165 4.38463 97.1347 4.02931C97.7529 3.674 98.4564 3.49634 99.2452 3.49634C99.9344 3.49634 100.528 3.6278 101.025 3.89074C101.523 4.15368 101.917 4.54808 102.208 5.07395C102.5 5.59982 102.677 6.25716 102.741 7.04597L102.208 7.45103C102.244 6.76882 102.436 6.12569 102.784 5.52165C103.139 4.91761 103.63 4.43082 104.255 4.06129C104.88 3.68465 105.601 3.49634 106.419 3.49634C107.193 3.49634 107.843 3.65623 108.369 3.97602C108.902 4.2958 109.307 4.77904 109.584 5.42572C109.861 6.06529 110 6.86831 110 7.83478V15.6269H104.766V8.39973C104.766 8.00888 104.681 7.72463 104.511 7.54697C104.347 7.3622 104.127 7.26982 103.85 7.26982C103.658 7.26982 103.48 7.31601 103.317 7.40839C103.161 7.49367 103.033 7.6358 102.933 7.83478C102.834 8.03376 102.784 8.28959 102.784 8.60227V15.6269H97.5504V8.39973C97.5504 8.00888 97.4651 7.72463 97.2946 7.54697C97.1311 7.3622 96.9109 7.26982 96.6337 7.26982C96.4419 7.26982 96.2642 7.31601 96.1008 7.40839C95.9445 7.49367 95.8165 7.6358 95.7171 7.83478C95.6176 8.03376 95.5678 8.28959 95.5678 8.60227V15.6269H90.345V3.83744Z" fill="black"/>
<path d="M79.7607 15.968C79.0003 15.968 78.3288 15.833 77.7461 15.563C77.1634 15.2858 76.7051 14.8665 76.3711 14.3051C76.0443 13.7366 75.8808 13.0331 75.8808 12.1945C75.8808 11.3773 76.0407 10.7093 76.3605 10.1905C76.6873 9.67177 77.1919 9.26671 77.874 8.97535C78.5633 8.67688 79.4764 8.46369 80.6134 8.33578L83.4806 8.00533V7.39774C83.4806 7.16322 83.4486 6.97135 83.3847 6.82212C83.3207 6.67288 83.2248 6.56274 83.0969 6.49167C82.9761 6.4135 82.8162 6.37442 82.6172 6.37442C82.2904 6.37442 82.0452 6.47746 81.8818 6.68354C81.7255 6.88963 81.6473 7.19876 81.6473 7.61093H76.2859C76.3285 6.70842 76.6234 5.95159 77.1705 5.34044C77.7248 4.72219 78.4709 4.26027 79.4089 3.9547C80.354 3.64912 81.4377 3.49634 82.6599 3.49634C83.8892 3.49634 84.9587 3.66334 85.8682 3.99734C86.7849 4.32423 87.4955 4.81812 88 5.47901C88.5045 6.13991 88.7568 6.95359 88.7568 7.92005V12.8554C88.7568 13.3173 88.7852 13.7473 88.8421 14.1452C88.8989 14.5432 88.9913 14.9944 89.1192 15.499C89.1334 15.5416 89.1441 15.5843 89.1512 15.6269H83.8857C83.8217 15.3284 83.7684 15.0442 83.7258 14.7742C83.6831 14.5041 83.6512 14.227 83.6299 13.9427C83.2035 14.5823 82.6599 15.0797 81.999 15.435C81.3382 15.7904 80.5921 15.968 79.7607 15.968ZM82.4254 12.7488C82.7025 12.7488 82.9441 12.6636 83.1502 12.493C83.3563 12.3153 83.4664 12.056 83.4806 11.7149V9.91339L82.7985 10.1053C82.4218 10.2119 82.1234 10.3291 81.9031 10.457C81.6899 10.5778 81.5336 10.7271 81.4341 10.9047C81.3417 11.0753 81.2955 11.2956 81.2955 11.5656C81.2955 11.8357 81.3453 12.0595 81.4448 12.2372C81.5443 12.4077 81.6793 12.5356 81.8498 12.6209C82.0204 12.7062 82.2122 12.7488 82.4254 12.7488Z" fill="black"/>
<path d="M68.2171 15.968C66.8314 15.968 65.6198 15.7335 64.5824 15.2645C63.5449 14.7884 62.7384 14.0848 62.1628 13.1539C61.5872 12.2159 61.2994 11.0753 61.2994 9.73218C61.2994 8.42461 61.5872 7.3018 62.1628 6.36376C62.7384 5.42572 63.5449 4.71508 64.5824 4.23185C65.6198 3.74151 66.8207 3.49634 68.1851 3.49634C69.5992 3.49634 70.8178 3.73795 71.8411 4.22119C72.8714 4.69731 73.6602 5.40084 74.2074 6.33178C74.7616 7.25561 75.0388 8.37486 75.0388 9.68954V10.7022H65.2539V8.27182H70.7539L69.5921 9.00733V8.28248C69.5921 7.89873 69.5388 7.57184 69.4322 7.3018C69.3327 7.03176 69.1764 6.82567 68.9632 6.68354C68.7571 6.53431 68.5013 6.45969 68.1957 6.45969C67.6983 6.45969 67.3217 6.64446 67.0659 7.01399C66.8172 7.37642 66.6928 7.90584 66.6928 8.60227V10.6063C66.6928 11.0753 66.7355 11.4803 66.8207 11.8215C66.9131 12.1555 67.0694 12.4255 67.2897 12.6316C67.5171 12.8306 67.8262 12.93 68.2171 12.93C68.6363 12.93 68.9596 12.8128 69.187 12.5783C69.4215 12.3367 69.5565 11.9885 69.5921 11.5336C69.5921 11.5265 69.5921 11.523 69.5921 11.523C69.5921 11.5159 69.5921 11.5088 69.5921 11.5017H74.9961C74.8895 12.4184 74.5414 13.2143 73.9516 13.8894C73.3689 14.5574 72.5837 15.0726 71.5959 15.435C70.6153 15.7904 69.489 15.968 68.2171 15.968Z" fill="black"/>
<path d="M57.5795 15.8188C56.7196 15.8188 55.9593 15.698 55.2985 15.4564C54.6376 15.2147 54.1118 14.8168 53.7209 14.2625C53.3301 13.7011 53.1347 12.9691 53.1347 12.0666V7.03531H51.28V3.83744H53.1347V1.67355L58.4109 0.170553V3.83744H60.6812V7.03531H58.4109V11.5123C58.4109 11.9032 58.5068 12.1803 58.6986 12.3438C58.8976 12.5001 59.1783 12.5783 59.5407 12.5783C59.7397 12.5783 59.9351 12.5605 60.1269 12.525C60.3188 12.4895 60.5036 12.4433 60.6812 12.3864V15.1899C60.2975 15.3817 59.8463 15.5345 59.3275 15.6482C58.8088 15.7619 58.2261 15.8188 57.5795 15.8188Z" fill="black"/>
<path d="M43.936 15.968C42.6072 15.968 41.4099 15.7371 40.344 15.2752C39.2852 14.8132 38.4432 14.1133 37.8178 13.1752C37.1996 12.2372 36.8905 11.0824 36.8905 9.71086C36.8905 8.36776 37.2032 7.23074 37.8285 6.2998C38.4538 5.36176 39.2994 4.66178 40.3653 4.19987C41.4312 3.73085 42.6214 3.49634 43.936 3.49634C45.2506 3.49634 46.4409 3.72729 47.5068 4.18921C48.5727 4.65112 49.4183 5.3511 50.0436 6.28914C50.6689 7.22008 50.9816 8.36065 50.9816 9.71086C50.9816 11.0824 50.6725 12.2372 50.0543 13.1752C49.4361 14.1133 48.594 14.8132 47.5281 15.2752C46.4693 15.7371 45.272 15.968 43.936 15.968ZM43.936 12.8767C44.2842 12.8767 44.5685 12.7702 44.7888 12.557C45.009 12.3367 45.1725 11.9956 45.2791 11.5336C45.3857 11.0646 45.439 10.457 45.439 9.71086C45.439 8.9718 45.3857 8.37486 45.2791 7.92005C45.1725 7.45814 45.009 7.12059 44.7888 6.9074C44.5685 6.6942 44.2842 6.58761 43.936 6.58761C43.5879 6.58761 43.3036 6.6942 43.0833 6.9074C42.863 7.12059 42.6996 7.45814 42.593 7.92005C42.4864 8.37486 42.4331 8.9718 42.4331 9.71086C42.4331 10.457 42.4864 11.0646 42.593 11.5336C42.6996 11.9956 42.863 12.3367 43.0833 12.557C43.3036 12.7702 43.5879 12.8767 43.936 12.8767Z" fill="black"/>
<path d="M30.3992 0.341106H35.6754V15.6269H30.3992V0.341106Z" fill="black"/>
<path d="M22.1492 15.968C20.8204 15.968 19.6231 15.7371 18.5572 15.2752C17.4984 14.8132 16.6563 14.1133 16.031 13.1752C15.4128 12.2372 15.1037 11.0824 15.1037 9.71086C15.1037 8.36776 15.4163 7.23074 16.0417 6.2998C16.667 5.36176 17.5126 4.66178 18.5785 4.19987C19.6444 3.73085 20.8346 3.49634 22.1492 3.49634C23.4638 3.49634 24.6541 3.72729 25.72 4.18921C26.7859 4.65112 27.6315 5.3511 28.2568 6.28914C28.8821 7.22008 29.1948 8.36065 29.1948 9.71086C29.1948 11.0824 28.8857 12.2372 28.2674 13.1752C27.6492 14.1133 26.8072 14.8132 25.7413 15.2752C24.6825 15.7371 23.4851 15.968 22.1492 15.968ZM22.1492 12.8767C22.4974 12.8767 22.7817 12.7702 23.0019 12.557C23.2222 12.3367 23.3857 11.9956 23.4922 11.5336C23.5988 11.0646 23.6521 10.457 23.6521 9.71086C23.6521 8.9718 23.5988 8.37486 23.4922 7.92005C23.3857 7.45814 23.2222 7.12059 23.0019 6.9074C22.7817 6.6942 22.4974 6.58761 22.1492 6.58761C21.801 6.58761 21.5168 6.6942 21.2965 6.9074C21.0762 7.12059 20.9128 7.45814 20.8062 7.92005C20.6996 8.37486 20.6463 8.9718 20.6463 9.71086C20.6463 10.457 20.6996 11.0646 20.8062 11.5336C20.9128 11.9956 21.0762 12.3367 21.2965 12.557C21.5168 12.7702 21.801 12.8767 22.1492 12.8767Z" fill="black"/>
<path d="M7.22674 16C5.77713 16 4.51227 15.833 3.43217 15.499C2.35207 15.165 1.51001 14.6427 0.906008 13.932C0.302003 13.2143 0 12.3082 0 11.2139H5.76647C5.76647 11.7397 5.89438 12.1377 6.15019 12.4077C6.41311 12.6707 6.77196 12.8021 7.22674 12.8021C7.60336 12.8021 7.90181 12.7169 8.12209 12.5463C8.34238 12.3686 8.45252 12.1093 8.45252 11.7682C8.45252 11.5408 8.40278 11.3453 8.3033 11.1819C8.20381 11.0184 8.05459 10.8763 7.85562 10.7555C7.65665 10.6276 7.39373 10.4997 7.06686 10.3718C7.00291 10.3504 6.95672 10.3362 6.92829 10.3291C6.89987 10.3149 6.85368 10.2971 6.78973 10.2758L4.67926 9.54031C3.69864 9.1992 2.88857 8.84388 2.24903 8.47435C1.6095 8.09771 1.09787 7.62159 0.714147 7.04597C0.337532 6.47035 0.149225 5.75616 0.149225 4.9034C0.149225 3.78059 0.458333 2.85321 1.07655 2.12125C1.70187 1.3893 2.54393 0.852765 3.60271 0.511659C4.6686 0.170553 5.87662 0 7.22674 0C8.42054 0 9.53262 0.159893 10.563 0.47968C11.5933 0.799467 12.4318 1.30757 13.0785 2.004C13.7251 2.70042 14.0484 3.58161 14.0484 4.64757H8.45252C8.44541 4.15723 8.32106 3.79125 8.07946 3.54963C7.84496 3.30091 7.52164 3.17655 7.1095 3.17655C6.73999 3.17655 6.44154 3.26893 6.21415 3.4537C5.98676 3.63136 5.87306 3.86942 5.87306 4.16789V4.23185C5.88727 4.44504 5.95833 4.62625 6.08624 4.77548C6.22125 4.91761 6.3918 5.03842 6.59787 5.13791C6.81105 5.2374 7.11305 5.35821 7.50388 5.50033L9.47578 6.21452C9.5042 6.22163 9.53262 6.23229 9.56105 6.2465C10.6056 6.63025 11.4654 7.0211 12.1405 7.41905C12.8227 7.80991 13.3627 8.31446 13.7607 8.93271C14.1657 9.54386 14.3682 10.3042 14.3682 11.2139C14.3682 12.3296 14.0591 13.2427 13.4409 13.9534C12.8298 14.664 11.9913 15.1828 10.9254 15.5097C9.8595 15.8366 8.62662 16 7.22674 16Z" fill="black"/>
</svg>
