<svg width="56" height="24" viewBox="0 0 56 24" fill="none" xmlns="http://www.w3.org/2000/svg">
<g id="icon number">
<path d="M0 12C0 5.37258 5.37258 0 12 0H44C50.6274 0 56 5.37258 56 12C56 18.6274 50.6274 24 44 24H12C5.37258 24 0 18.6274 0 12Z" fill="#FDFCF7"/>
<path d="M23.96 18.16C23.416 18.16 22.904 18.0693 22.424 17.888C21.944 17.696 21.5173 17.3813 21.144 16.944C20.7707 16.5067 20.4773 15.92 20.264 15.184C20.0613 14.4373 19.96 13.5093 19.96 12.4V12.08C19.96 11.0453 20.0613 10.1813 20.264 9.488C20.4773 8.784 20.7707 8.224 21.144 7.808C21.5173 7.392 21.944 7.09333 22.424 6.912C22.904 6.73067 23.416 6.64 23.96 6.64C24.504 6.64 25.016 6.73067 25.496 6.912C25.976 7.09333 26.4027 7.392 26.776 7.808C27.1493 8.224 27.4373 8.784 27.64 9.488C27.8533 10.1813 27.96 11.0453 27.96 12.08V12.4C27.96 13.5093 27.8533 14.4373 27.64 15.184C27.4373 15.92 27.1493 16.5067 26.776 16.944C26.4027 17.3813 25.976 17.696 25.496 17.888C25.016 18.0693 24.504 18.16 23.96 18.16ZM23.96 16.848C24.3013 16.848 24.6213 16.7893 24.92 16.672C25.2187 16.544 25.48 16.32 25.704 16C25.9387 15.6693 26.12 15.216 26.248 14.64C26.3867 14.0533 26.456 13.3067 26.456 12.4V12.08C26.456 10.9707 26.3387 10.1173 26.104 9.52C25.88 8.92267 25.576 8.512 25.192 8.288C24.8187 8.064 24.408 7.952 23.96 7.952C23.512 7.952 23.096 8.064 22.712 8.288C22.3387 8.512 22.0347 8.92267 21.8 9.52C21.576 10.1173 21.464 10.9707 21.464 12.08V12.4C21.464 13.3067 21.528 14.0533 21.656 14.64C21.7947 15.216 21.976 15.6693 22.2 16C22.4347 16.32 22.7013 16.544 23 16.672C23.3093 16.7893 23.6293 16.848 23.96 16.848Z" fill="black" fill-opacity="0.5"/>
<path d="M33.4819 18.16C32.6712 18.16 31.9779 18.0213 31.4019 17.744C30.8365 17.456 30.3992 17.072 30.0899 16.592C29.7912 16.1013 29.6419 15.5573 29.6419 14.96H31.1459C31.1459 15.504 31.3325 15.952 31.7059 16.304C32.0792 16.6453 32.6712 16.816 33.4819 16.816C34.2925 16.816 34.8845 16.64 35.2579 16.288C35.6312 15.9253 35.8179 15.456 35.8179 14.88C35.8179 14.2827 35.6259 13.8027 35.2419 13.44C34.8685 13.0667 34.2819 12.88 33.4819 12.88H32.2819V11.6H33.4819C34.2499 11.6 34.8045 11.44 35.1459 11.12C35.4872 10.7893 35.6579 10.336 35.6579 9.76C35.6579 9.20533 35.4925 8.77333 35.1619 8.464C34.8312 8.144 34.2712 7.984 33.4819 7.984C32.7245 7.984 32.1699 8.14933 31.8179 8.48C31.4765 8.8 31.3059 9.2 31.3059 9.68H29.8019C29.8019 9.11467 29.9459 8.60267 30.2339 8.144C30.5219 7.68533 30.9379 7.32267 31.4819 7.056C32.0365 6.77867 32.7032 6.64 33.4819 6.64C34.2712 6.64 34.9379 6.77867 35.4819 7.056C36.0365 7.32267 36.4525 7.68 36.7299 8.128C37.0179 8.576 37.1619 9.06667 37.1619 9.6C37.1619 10.24 36.9912 10.784 36.6499 11.232C36.3192 11.6693 35.8499 11.9787 35.2419 12.16C35.8819 12.3627 36.3885 12.6933 36.7619 13.152C37.1352 13.6107 37.3219 14.24 37.3219 15.04C37.3219 15.6053 37.1725 16.128 36.8739 16.608C36.5752 17.0773 36.1379 17.456 35.5619 17.744C34.9965 18.0213 34.3032 18.16 33.4819 18.16Z" fill="black" fill-opacity="0.5"/>
</g>
</svg>
