<svg width="56" height="24" viewBox="0 0 56 24" fill="none" xmlns="http://www.w3.org/2000/svg">
<g id="icon number">
<path d="M0 12C0 5.37258 5.37258 0 12 0H44C50.6274 0 56 5.37258 56 12C56 18.6274 50.6274 24 44 24H12C5.37258 24 0 18.6274 0 12Z" fill="#FDFCF7"/>
<path d="M23.96 18.16C23.416 18.16 22.904 18.0693 22.424 17.888C21.944 17.696 21.5173 17.3813 21.144 16.944C20.7707 16.5067 20.4773 15.92 20.264 15.184C20.0613 14.4373 19.96 13.5093 19.96 12.4V12.08C19.96 11.0453 20.0613 10.1813 20.264 9.488C20.4773 8.784 20.7707 8.224 21.144 7.808C21.5173 7.392 21.944 7.09333 22.424 6.912C22.904 6.73067 23.416 6.64 23.96 6.64C24.504 6.64 25.016 6.73067 25.496 6.912C25.976 7.09333 26.4027 7.392 26.776 7.808C27.1493 8.224 27.4373 8.784 27.64 9.488C27.8533 10.1813 27.96 11.0453 27.96 12.08V12.4C27.96 13.5093 27.8533 14.4373 27.64 15.184C27.4373 15.92 27.1493 16.5067 26.776 16.944C26.4027 17.3813 25.976 17.696 25.496 17.888C25.016 18.0693 24.504 18.16 23.96 18.16ZM23.96 16.848C24.3013 16.848 24.6213 16.7893 24.92 16.672C25.2187 16.544 25.48 16.32 25.704 16C25.9387 15.6693 26.12 15.216 26.248 14.64C26.3867 14.0533 26.456 13.3067 26.456 12.4V12.08C26.456 10.9707 26.3387 10.1173 26.104 9.52C25.88 8.92267 25.576 8.512 25.192 8.288C24.8187 8.064 24.408 7.952 23.96 7.952C23.512 7.952 23.096 8.064 22.712 8.288C22.3387 8.512 22.0347 8.92267 21.8 9.52C21.576 10.1173 21.464 10.9707 21.464 12.08V12.4C21.464 13.3067 21.528 14.0533 21.656 14.64C21.7947 15.216 21.976 15.6693 22.2 16C22.4347 16.32 22.7013 16.544 23 16.672C23.3093 16.7893 23.6293 16.848 23.96 16.848Z" fill="black" fill-opacity="0.5"/>
<path d="M29.5619 18V16.768L34.0419 12.88C34.5005 12.496 34.8525 12.16 35.0979 11.872C35.3432 11.5733 35.5085 11.2907 35.5939 11.024C35.6899 10.7573 35.7379 10.4693 35.7379 10.16C35.7379 9.53067 35.5512 9.01333 35.1779 8.608C34.8045 8.192 34.2925 7.984 33.6419 7.984C32.8632 7.984 32.2659 8.19733 31.8499 8.624C31.4339 9.04 31.2259 9.632 31.2259 10.4H29.7219C29.7219 9.664 29.8819 9.01333 30.2019 8.448C30.5325 7.88267 30.9912 7.44 31.5779 7.12C32.1752 6.8 32.8632 6.64 33.6419 6.64C34.3992 6.64 35.0445 6.79467 35.5779 7.104C36.1219 7.40267 36.5325 7.81867 36.8099 8.352C37.0979 8.87467 37.2419 9.47733 37.2419 10.16C37.2419 10.672 37.1405 11.1413 36.9379 11.568C36.7352 11.984 36.4525 12.3787 36.0899 12.752C35.7379 13.1253 35.3272 13.5147 34.8579 13.92L31.5139 16.688H37.4019V18H29.5619Z" fill="black" fill-opacity="0.5"/>
</g>
</svg>
